<svg width="190" height="52" viewBox="0 0 190 52" fill="none" xmlns="http://www.w3.org/2000/svg">
<g clip-path="url(#clip0_2_2)">
<path d="M84.632 20.8759H74.2188L74.9929 17.3031H100.032L99.2575 20.8759H88.799L82.5032 50.8943H78.3034L84.6279 20.8759H84.632Z" fill="#322A85"/>
<path d="M107.793 44.8255C107.369 46.8759 106.78 49.9083 106.653 50.8943H102.733C102.811 49.9991 103.083 48.4973 103.363 47.1317C102.14 49.0955 100.069 51.377 95.0865 51.377C90.1043 51.377 88.3625 48.1343 88.3625 45.2174C88.3625 38.2326 94.8971 36.7061 99.7887 36.2358C102.325 36.013 104.483 36.013 105.718 35.9635L106.035 34.3091C106.496 31.9946 106.327 29.0283 101.65 29.0283C97.5447 29.0283 96.3959 31.1819 95.6794 33.0549H91.6072C92.4471 29.4202 95.1483 25.9299 102.008 25.9299C107.616 25.9299 111.231 28.4713 110.004 34.3421L107.789 44.8255H107.793ZM105.113 38.934C103.799 38.967 102.169 38.9835 100.098 39.1939C96.1406 39.6189 92.5954 40.6874 92.5954 44.6192C92.5954 46.4716 93.8348 48.0435 96.5276 48.0435C101.86 48.0435 103.96 43.8766 105.018 39.3177L105.113 38.9299V38.934Z" fill="#322A85"/>
<path d="M112.059 43.5424C112.327 46.0879 113.883 48.1425 117.77 48.1425C121.052 48.1425 122.756 46.517 122.756 44.1818C122.756 41.8467 121.163 40.8235 117.692 39.5652C112.434 37.7169 110.82 35.8604 110.82 33.0343C110.82 29.2222 113.735 25.934 119.627 25.934C125.964 25.934 128.34 29.4903 128.237 33.0013H124.181C124.008 31.2767 123.209 29.1231 119.256 29.1231C116.708 29.1231 114.867 30.3815 114.867 32.5846C114.867 34.3091 116.263 35.1177 119.718 36.3761C124.852 38.212 126.94 40.2666 126.94 43.6785C126.94 48.5551 123.02 51.3811 117.185 51.3811C110.968 51.3811 107.978 48.126 108.003 43.5424H112.055H112.059Z" fill="#322A85"/>
<path d="M132.478 37.6674C134.903 35.4395 141.668 29.6306 145.275 26.4126H150.319C146.663 29.6677 142.957 32.828 139.379 35.9346L145.856 50.8984H141.343L136.233 38.4307L131.638 42.0241L129.769 50.8984H125.779L133.26 15.4507H137.25L132.478 37.6715V37.6674Z" fill="#322A85"/>
<path d="M153.099 51.175V36.7434H154.75V51.175H153.099ZM153.638 44.6194V43.3569H163.726V44.6194H153.638ZM162.548 51.175V36.7434H164.199V51.175H162.548Z" fill="#322A85"/>
<path d="M171.039 51.377C167.374 51.377 165.538 49.7639 165.538 46.5376V36.7391H167.189V46.5376C167.189 47.7217 167.502 48.617 168.128 49.2193C168.753 49.8217 169.742 50.1228 171.088 50.1228C173.686 50.1228 174.987 48.9264 174.987 46.5335V36.735H176.639V46.5335C176.639 48.1466 176.165 49.3555 175.214 50.16C174.263 50.9645 172.871 51.3688 171.039 51.3688V51.377Z" fill="#322A85"/>
<path d="M178.228 51.1749V36.7433H179.879V51.1749H178.228ZM179.352 43.8477V43.2577H184.787V43.8477H179.352ZM179.702 43.4805V42.9235H183.35C184.532 42.9235 185.45 42.7049 186.101 42.2634C186.751 41.822 187.077 41.2031 187.077 40.4027C187.077 39.6023 186.751 39.0371 186.101 38.6204C185.45 38.2037 184.532 37.9975 183.338 37.9975H179.751L179.451 36.7474H183.301C185.034 36.7474 186.377 37.0609 187.324 37.6839C188.275 38.3069 188.748 39.1898 188.748 40.3367C188.748 41.3475 188.349 42.1231 187.554 42.6677C186.76 43.2123 185.627 43.4846 184.161 43.4846H179.698L179.702 43.4805ZM179.702 51.1749V49.9248H184.264C185.557 49.9248 186.554 49.6855 187.266 49.2069C187.974 48.7283 188.328 48.0517 188.328 47.1812C188.328 46.2241 187.974 45.4856 187.266 44.9657C186.558 44.4418 185.557 44.1818 184.264 44.1818H179.751L179.451 43.563H184.639C186.348 43.563 187.669 43.8889 188.6 44.5408C189.531 45.1926 190 46.1044 190 47.2844C190 48.4643 189.522 49.4751 188.563 50.1558C187.604 50.8366 186.245 51.179 184.487 51.179H179.698L179.702 51.1749Z" fill="#322A85"/>
<path d="M14.0779 51.3069H16.2149C14.0244 48.6458 2.73405 34.1028 7.85628 22.8397H6.05279C3.88696 28.2897 4.7393 35.1054 8.54803 42.6182C10.4874 46.451 12.7232 49.5617 14.082 51.3069H14.0779Z" fill="#322A85" stroke="#322A85" stroke-width="2" stroke-miterlimit="10"/>
<path d="M9.60621 51.3069H11.7432C9.55268 48.6499 -1.74174 34.1152 3.3846 22.8397H1.58111C-0.584715 28.2897 0.267617 35.1054 4.07635 42.6182C6.01571 46.451 8.25154 49.5617 9.61033 51.3069H9.60621Z" fill="#322A85" stroke="#322A85" stroke-width="2" stroke-miterlimit="10"/>
<path d="M18.5495 51.3069H20.6865C18.496 48.6499 7.20155 34.1152 12.3279 22.8397H10.5244C8.35858 28.2897 9.21092 35.1054 13.0196 42.6182C14.959 46.451 17.1948 49.5617 18.5536 51.3069H18.5495Z" fill="#322A85" stroke="#322A85" stroke-width="2" stroke-miterlimit="10"/>
<path d="M57.0444 0.412567L18.7471 41.0463C19.0065 41.5868 19.2742 42.1108 19.5459 42.6265L59.3297 0.412567H57.0444Z" fill="#322A85" stroke="#322A85" stroke-width="2" stroke-miterlimit="10"/>
<path d="M64.3737 0.412567L21.3741 45.8074C21.6871 46.3107 22 46.7934 22.3006 47.2513L66.6671 0.412567H64.3737Z" fill="#322A85" stroke="#322A85" stroke-width="2" stroke-miterlimit="10"/>
<path d="M71.5958 0.412567L24.2811 50.0527C24.697 50.6014 25.047 51.0511 25.3146 51.3811L73.8975 0.412567H71.6H71.5958Z" fill="#322A85" stroke="#322A85" stroke-width="2" stroke-miterlimit="10"/>
</g>
<defs>
<clipPath id="clip0_2_2">
<rect width="190" height="52" fill="white"/>
</clipPath>
</defs>
</svg>
