<svg width="46" height="46" viewBox="0 0 46 46" fill="none" xmlns="http://www.w3.org/2000/svg">
<path d="M22.5347 9.65776L20.2329 11.9L29.2146 20.9251H9.65771V24.1444H29.2146L20.2329 33.1148L22.5347 35.4118L35.4116 22.5348L22.5347 9.65776Z" fill="#2F2F2F" style="mix-blend-mode:lighten"/>
<path d="M22.5347 9.65776L20.2329 11.9L29.2146 20.9251H9.65771V24.1444H29.2146L20.2329 33.1148L22.5347 35.4118L35.4116 22.5348L22.5347 9.65776Z" fill="url(#paint0_linear_4_3)" fill-opacity="0.2"/>
<path d="M22.5347 45.0695C18.0778 45.0695 13.7209 43.7479 10.0151 41.2717C6.3093 38.7956 3.42096 35.2761 1.71536 31.1585C0.00976392 27.0408 -0.436499 22.5098 0.433008 18.1385C1.30252 13.7671 3.44874 9.75183 6.60028 6.60029C9.75181 3.44875 13.7671 1.30252 18.1384 0.433009C22.5097 -0.436499 27.0407 0.00976393 31.1584 1.71537C35.2761 3.42097 38.7955 6.30931 41.2717 10.0151C43.7478 13.721 45.0695 18.0778 45.0695 22.5348C45.0627 28.5093 42.6864 34.2372 38.4618 38.4618C34.2371 42.6864 28.5092 45.0628 22.5347 45.0695ZM22.5347 3.21926C18.7145 3.21926 14.98 4.3521 11.8036 6.47451C8.62722 8.59693 6.1515 11.6136 4.68956 15.143C3.22762 18.6725 2.84511 22.5562 3.5904 26.303C4.33569 30.0499 6.17531 33.4916 8.87663 36.1929C11.5779 38.8942 15.0196 40.7338 18.7665 41.4791C22.5133 42.2244 26.397 41.8419 29.9264 40.38C33.4559 38.918 36.4725 36.4423 38.595 33.2659C40.7174 30.0895 41.8502 26.355 41.8502 22.5348C41.8444 17.4138 39.8075 12.5042 36.1864 8.88309C32.5653 5.26199 27.6557 3.2251 22.5347 3.21926Z" fill="#2F2F2F" style="mix-blend-mode:lighten"/>
<path d="M22.5347 45.0695C18.0778 45.0695 13.7209 43.7479 10.0151 41.2717C6.3093 38.7956 3.42096 35.2761 1.71536 31.1585C0.00976392 27.0408 -0.436499 22.5098 0.433008 18.1385C1.30252 13.7671 3.44874 9.75183 6.60028 6.60029C9.75181 3.44875 13.7671 1.30252 18.1384 0.433009C22.5097 -0.436499 27.0407 0.00976393 31.1584 1.71537C35.2761 3.42097 38.7955 6.30931 41.2717 10.0151C43.7478 13.721 45.0695 18.0778 45.0695 22.5348C45.0627 28.5093 42.6864 34.2372 38.4618 38.4618C34.2371 42.6864 28.5092 45.0628 22.5347 45.0695ZM22.5347 3.21926C18.7145 3.21926 14.98 4.3521 11.8036 6.47451C8.62722 8.59693 6.1515 11.6136 4.68956 15.143C3.22762 18.6725 2.84511 22.5562 3.5904 26.303C4.33569 30.0499 6.17531 33.4916 8.87663 36.1929C11.5779 38.8942 15.0196 40.7338 18.7665 41.4791C22.5133 42.2244 26.397 41.8419 29.9264 40.38C33.4559 38.918 36.4725 36.4423 38.595 33.2659C40.7174 30.0895 41.8502 26.355 41.8502 22.5348C41.8444 17.4138 39.8075 12.5042 36.1864 8.88309C32.5653 5.26199 27.6557 3.2251 22.5347 3.21926Z" fill="url(#paint1_linear_4_3)" fill-opacity="0.2"/>
<defs>
<linearGradient id="paint0_linear_4_3" x1="22.5347" y1="9.65776" x2="22.5347" y2="35.4118" gradientUnits="userSpaceOnUse">
<stop stop-color="white"/>
<stop offset="1" stop-opacity="0"/>
</linearGradient>
<linearGradient id="paint1_linear_4_3" x1="22.5347" y1="0" x2="22.5347" y2="45.0695" gradientUnits="userSpaceOnUse">
<stop stop-color="white"/>
<stop offset="1" stop-opacity="0"/>
</linearGradient>
</defs>
</svg>
