<svg width="34" height="27" viewBox="0 0 34 27" fill="none" xmlns="http://www.w3.org/2000/svg">
<path d="M32.2056 11.2472H1.79444C0.8034 11.2472 0 12.2039 0 13.3842V13.6091C0 14.7893 0.8034 15.7461 1.79444 15.7461H32.2056C33.1966 15.7461 34 14.7893 34 13.6091V13.3842C34 12.2039 33.1966 11.2472 32.2056 11.2472Z" fill="#322A85"/>
<path d="M32.2056 22.4944H1.79444C0.8034 22.4944 0 23.4511 0 24.6314V24.8563C0 26.0365 0.8034 26.9933 1.79444 26.9933H32.2056C33.1966 26.9933 34 26.0365 34 24.8563V24.6314C34 23.4511 33.1966 22.4944 32.2056 22.4944Z" fill="#322A85"/>
<path d="M32.2056 0H1.79444C0.8034 0 0 0.956751 0 2.13696V2.36191C0 3.54212 0.8034 4.49887 1.79444 4.49887H32.2056C33.1966 4.49887 34 3.54212 34 2.36191V2.13696C34 0.956751 33.1966 0 32.2056 0Z" fill="#322A85"/>
</svg>
